<svg width="64" height="64" viewBox="0 0 64 64" fill="none" xmlns="http://www.w3.org/2000/svg">
<path d="M56.09 47.7901C56.1048 47.731 56.1048 47.6692 56.09 47.6101C55.6314 43.5152 54.1315 39.6061 51.7332 36.2555C49.3349 32.9049 46.1183 30.2246 42.39 28.4701C43.2957 27.247 43.9329 25.8465 44.26 24.3601H46.93C47.1952 24.3601 47.4496 24.2547 47.6371 24.0672C47.8246 23.8797 47.93 23.6253 47.93 23.3601V20.6101C47.93 20.3449 47.8246 20.0905 47.6371 19.903C47.4496 19.7155 47.1952 19.6101 46.93 19.6101H46.29C46.1915 18.1887 45.8814 16.79 45.37 15.4601V15.4601C44.5824 13.4012 43.3253 11.5545 41.6987 10.0668C40.0721 8.57903 38.1208 7.49131 36 6.8901C36 5.81862 35.5743 4.79103 34.8167 4.03339C34.059 3.27574 33.0315 2.8501 31.96 2.8501C30.8885 2.8501 29.8609 3.27574 29.1033 4.03339C28.3456 4.79103 27.92 5.81862 27.92 6.8901C25.126 7.71648 22.652 9.3783 20.8304 11.6522C19.0087 13.9261 17.9268 16.7032 17.73 19.6101H17.09C16.8248 19.6101 16.5704 19.7155 16.3829 19.903C16.1953 20.0905 16.09 20.3449 16.09 20.6101V23.3601C16.09 23.6253 16.1953 23.8797 16.3829 24.0672C16.5704 24.2547 16.8248 24.3601 17.09 24.3601H19.76C20.087 25.8465 20.7243 27.247 21.63 28.4701C21.25 28.6401 20.88 28.8301 20.52 29.0301C17.0721 30.8741 14.1245 33.5289 11.9312 36.7658C9.73785 40.0026 8.36466 43.7244 7.92998 47.6101C7.91516 47.6692 7.91516 47.731 7.92998 47.7901C5.42998 58.4701 22.25 61.0501 32 61.0001C45.33 60.7701 58.07 57.7101 56.09 47.7901ZM10.31 45.4201H18.16V46.7501H10.06C10.13 46.3001 10.21 45.8601 10.31 45.4201ZM20.16 31.5401L20.61 31.2601L21.48 32.2601V58.0501L20.16 57.7801V31.5401ZM28.16 33.0101C28.2616 33.522 28.5372 33.9829 28.94 34.3147C29.3429 34.6464 29.8481 34.8285 30.37 34.8301H33.69C34.2081 34.8212 34.7074 34.6345 35.1043 34.3014C35.5011 33.9682 35.7715 33.5088 35.87 33.0001C37.7932 32.4199 39.5513 31.3917 41 30.0001L41.59 30.2701L40.83 31.1401L32 41.3101L22.42 30.3101L23 30.0001C24.4487 31.3917 26.2068 32.4199 28.13 33.0001L28.16 33.0101ZM30.16 32.5801C30.16 32.5138 30.1863 32.4502 30.2332 32.4033C30.2801 32.3564 30.3437 32.3301 30.41 32.3301H33.73C33.7963 32.3301 33.8599 32.3564 33.9068 32.4033C33.9536 32.4502 33.98 32.5138 33.98 32.5801C33.98 32.6464 33.9536 32.71 33.9068 32.7569C33.8599 32.8038 33.7963 32.8301 33.73 32.8301H30.34C30.2737 32.8301 30.2101 32.8038 30.1632 32.7569C30.1163 32.71 30.09 32.6464 30.09 32.5801H30.16ZM31 43.2001V43.4201H23.48V34.5601L31 43.2001ZM23.48 45.4201H31V46.7501H23.48V45.4201ZM33 45.4201H40.53V46.7501H33V45.4201ZM40.53 43.4201H33V43.2001L40.53 34.5601V43.4201ZM23.53 48.7501H31V59.0001C28.4828 58.9657 25.9707 58.7652 23.48 58.4001L23.53 48.7501ZM33.05 48.7501H40.58V58.3901C38.0696 58.7612 35.5374 58.965 33 59.0001L33.05 48.7501ZM42.58 32.2701L43.46 31.2701L43.9 31.5501V57.7701L42.58 58.0501V32.2701ZM45.9 45.4201H53.74C53.84 45.8601 53.92 46.3001 53.99 46.7501H45.85L45.9 45.4201ZM53.18 43.4201H45.85V33.0001C49.2421 35.688 51.7729 39.3104 53.13 43.4201H53.18ZM29.94 7.0601C29.94 6.51375 30.157 5.98978 30.5433 5.60346C30.9297 5.21713 31.4536 5.0001 32 5.0001C32.5463 5.0001 33.0703 5.21713 33.4566 5.60346C33.8429 5.98978 34.06 6.51375 34.06 7.0601V12.7701H29.94V7.0601ZM20.28 16.8301H24.17C24.4352 16.8301 24.6896 16.7247 24.8771 16.5372C25.0646 16.3497 25.17 16.0953 25.17 15.8301C25.17 15.5649 25.0646 15.3105 24.8771 15.123C24.6896 14.9355 24.4352 14.8301 24.17 14.8301H21.12C22.5678 12.0891 25.0071 10.0039 27.94 9.0001V13.7801C27.94 14.0453 28.0453 14.2997 28.2329 14.4872C28.4204 14.6747 28.6748 14.7801 28.94 14.7801H35.06C35.3252 14.7801 35.5795 14.6747 35.7671 14.4872C35.9546 14.2997 36.06 14.0453 36.06 13.7801V9.0001C38.9946 10.0063 41.4341 12.0953 42.88 14.8401H39.83C39.5648 14.8401 39.3104 14.9455 39.1229 15.133C38.9353 15.3205 38.83 15.5749 38.83 15.8401C38.83 16.1053 38.9353 16.3597 39.1229 16.5472C39.3104 16.7347 39.5648 16.8401 39.83 16.8401H43.72C44.0056 17.7436 44.1901 18.6759 44.27 19.6201H19.73C19.8091 18.6726 19.9936 17.7368 20.28 16.8301V16.8301ZM18.09 21.6101H45.91V22.3601H18.09V21.6101ZM42.18 24.3601C41.6932 25.9647 40.8107 27.4211 39.6137 28.5954C38.4167 29.7697 36.9436 30.6241 35.33 31.0801C35.1209 30.8435 34.8639 30.6543 34.5759 30.5249C34.2879 30.3956 33.9757 30.3292 33.66 30.3301H30.34C30.0243 30.3292 29.712 30.3956 29.4241 30.5249C29.1361 30.6543 28.879 30.8435 28.67 31.0801C27.0563 30.6241 25.5833 29.7697 24.3863 28.5954C23.1893 27.4211 22.3068 25.9647 21.82 24.3601H42.18ZM18.16 33.0001V43.4201H10.87C12.2292 39.3089 14.7637 35.6862 18.16 33.0001V33.0001ZM9.75998 50.3701C9.75998 49.8301 9.77998 49.2901 9.81998 48.7501H18.16V57.2601C13.2 55.8201 9.75998 53.5101 9.75998 50.3701ZM45.85 57.2601V48.7501H54.18C54.9 53.1501 51.64 55.5101 45.85 57.2601Z" fill="url(#paint0_linear_524_15842)" id="id_101"></path>
<defs>
<linearGradient id="paint0_linear_524_15842" x1="7.65998" y1="32.0201" x2="56.3" y2="32.0201" gradientUnits="userSpaceOnUse">
<stop stop-color="#FCD702" id="id_102"></stop>
<stop offset="0.18" stop-color="#F8B802" id="id_103"></stop>
<stop offset="0.57" stop-color="#F17901" id="id_104"></stop>
<stop offset="0.85" stop-color="#EC5101" id="id_105"></stop>
<stop offset="1" stop-color="#EA4201" id="id_106"></stop>
</linearGradient>
</defs>
</svg>