<?xml version="1.0" encoding="UTF-8"?>
<svg xmlns="http://www.w3.org/2000/svg" xmlns:xlink="http://www.w3.org/1999/xlink" width="64px" height="64px" viewBox="0 0 64 64" version="1.1">
<g id="surface1">
<path style=" stroke:none;fill-rule:nonzero;fill:rgb(98.039216%,65.490196%,0%);fill-opacity:1;" d="M 60.75 32 C 60.75 47.878906 47.878906 60.75 32 60.75 C 16.121094 60.75 3.25 47.878906 3.25 32 C 3.25 16.121094 16.121094 3.25 32 3.25 C 47.878906 3.25 60.75 16.121094 60.75 32 Z M 60.75 32 "/>
<path style=" stroke:none;fill-rule:nonzero;fill:rgb(100%,100%,100%);fill-opacity:1;" d="M 25.171875 26.359375 C 24.753906 26.359375 24.421875 26.695312 24.421875 27.109375 L 24.421875 44 C 24.421875 44.414062 24.753906 44.75 25.171875 44.75 C 25.585938 44.75 25.921875 44.414062 25.921875 44 L 25.921875 27.109375 C 25.914062 26.699219 25.582031 26.367188 25.171875 26.359375 Z M 25.171875 26.359375 "/>
<path style=" stroke:none;fill-rule:nonzero;fill:rgb(100%,100%,100%);fill-opacity:1;" d="M 32 26.359375 C 31.589844 26.367188 31.253906 26.699219 31.25 27.109375 L 31.25 44 C 31.25 44.414062 31.585938 44.75 32 44.75 C 32.414062 44.75 32.75 44.414062 32.75 44 L 32.75 27.109375 C 32.746094 26.699219 32.410156 26.367188 32 26.359375 Z M 32 26.359375 "/>
<path style=" stroke:none;fill-rule:nonzero;fill:rgb(100%,100%,100%);fill-opacity:1;" d="M 38.828125 44.761719 C 39.03125 44.761719 39.222656 44.683594 39.363281 44.542969 C 39.503906 44.402344 39.582031 44.210938 39.578125 44.011719 L 39.578125 27.109375 C 39.578125 26.695312 39.246094 26.359375 38.828125 26.359375 C 38.414062 26.359375 38.078125 26.695312 38.078125 27.109375 L 38.078125 44 C 38.078125 44.199219 38.15625 44.394531 38.296875 44.535156 C 38.4375 44.679688 38.628906 44.761719 38.828125 44.761719 Z M 38.828125 44.761719 "/>
<path style=" stroke:none;fill-rule:nonzero;fill:rgb(100%,100%,100%);fill-opacity:1;" d="M 49.050781 17.058594 L 38.671875 17.058594 L 38.671875 12 C 38.664062 11.589844 38.332031 11.253906 37.921875 11.25 L 26.078125 11.25 C 25.667969 11.253906 25.335938 11.589844 25.328125 12 L 25.328125 17.058594 L 15 17.058594 C 14.585938 17.058594 14.25 17.394531 14.25 17.808594 C 14.25 18.222656 14.585938 18.558594 15 18.558594 L 17.480469 18.558594 L 17.480469 50 C 17.480469 51.519531 18.710938 52.75 20.230469 52.75 L 43.820312 52.75 C 45.339844 52.75 46.570312 51.519531 46.570312 50 L 46.570312 18.558594 L 49.050781 18.558594 C 49.464844 18.558594 49.800781 18.222656 49.800781 17.808594 C 49.800781 17.394531 49.464844 17.058594 49.050781 17.058594 Z M 26.828125 12.75 L 37.171875 12.75 L 37.171875 17.058594 L 26.828125 17.058594 Z M 45.070312 50 C 45.070312 50.691406 44.511719 51.25 43.820312 51.25 L 20.179688 51.25 C 19.488281 51.25 18.929688 50.691406 18.929688 50 L 18.929688 18.558594 L 45.070312 18.558594 Z M 45.070312 50 "/>
</g>
</svg>
