<?xml version="1.0" encoding="UTF-8"?>
<svg xmlns="http://www.w3.org/2000/svg" xmlns:xlink="http://www.w3.org/1999/xlink" width="90px" height="90px" viewBox="0 0 64 64" version="1.1">
<g id="surface1">
<path style=" stroke:none;fill-rule:nonzero;fill:rgb(95.686275%,76.078431%,24.705882%);fill-opacity:1;" d="M 37.855469 15.296875 C 37.742188 15.257812 37.632812 15.230469 37.519531 15.199219 C 37.296875 15.144531 37.074219 15.097656 36.847656 15.066406 L 36.734375 15.046875 C 36.289062 14.984375 35.941406 14.636719 35.878906 14.195312 C 35.875 14.15625 35.867188 14.117188 35.863281 14.078125 C 35.828125 13.851562 35.785156 13.628906 35.726562 13.40625 C 35.699219 13.296875 35.667969 13.183594 35.632812 13.070312 C 35.597656 12.957031 35.554688 12.847656 35.507812 12.734375 C 35.457031 12.847656 35.417969 12.960938 35.378906 13.070312 C 35.339844 13.183594 35.3125 13.296875 35.28125 13.40625 C 35.230469 13.632812 35.183594 13.855469 35.148438 14.078125 C 35.140625 14.113281 35.140625 14.152344 35.132812 14.1875 C 35.070312 14.632812 34.722656 14.984375 34.277344 15.042969 L 34.164062 15.058594 C 33.9375 15.09375 33.714844 15.136719 33.492188 15.195312 C 33.378906 15.222656 33.269531 15.253906 33.160156 15.292969 C 33.042969 15.328125 32.929688 15.371094 32.824219 15.421875 C 32.929688 15.46875 33.042969 15.511719 33.160156 15.546875 C 33.269531 15.585938 33.378906 15.621094 33.492188 15.648438 C 33.714844 15.703125 33.9375 15.746094 34.164062 15.78125 L 34.273438 15.796875 C 34.71875 15.859375 35.070312 16.207031 35.128906 16.652344 C 35.132812 16.6875 35.140625 16.726562 35.144531 16.765625 C 35.179688 16.988281 35.222656 17.214844 35.28125 17.433594 C 35.308594 17.546875 35.339844 17.65625 35.378906 17.769531 C 35.414062 17.882812 35.457031 17.996094 35.507812 18.105469 C 35.558594 17.992188 35.597656 17.882812 35.636719 17.769531 C 35.671875 17.65625 35.703125 17.546875 35.730469 17.433594 C 35.789062 17.210938 35.832031 16.984375 35.867188 16.765625 C 35.871094 16.726562 35.878906 16.6875 35.886719 16.648438 C 35.945312 16.207031 36.292969 15.855469 36.734375 15.796875 L 36.847656 15.777344 C 37.074219 15.742188 37.296875 15.699219 37.519531 15.640625 C 37.632812 15.613281 37.742188 15.585938 37.855469 15.546875 C 37.96875 15.511719 38.082031 15.46875 38.191406 15.421875 C 38.082031 15.371094 37.96875 15.332031 37.855469 15.296875 Z M 37.855469 15.296875 "/>
<path style=" stroke:none;fill-rule:nonzero;fill:rgb(95.686275%,76.078431%,24.705882%);fill-opacity:1;" d="M 14.496094 21.425781 C 14.425781 21.402344 14.359375 21.382812 14.292969 21.367188 C 14.164062 21.332031 14.03125 21.304688 13.898438 21.285156 L 13.828125 21.277344 C 13.5625 21.238281 13.359375 21.03125 13.320312 20.769531 L 13.3125 20.699219 C 13.289062 20.566406 13.265625 20.433594 13.230469 20.300781 L 13.175781 20.101562 C 13.152344 20.035156 13.128906 19.964844 13.097656 19.902344 C 13.070312 19.96875 13.046875 20.035156 13.023438 20.101562 C 13 20.167969 12.980469 20.234375 12.964844 20.300781 C 12.933594 20.433594 12.90625 20.566406 12.886719 20.699219 L 12.875 20.769531 C 12.839844 21.03125 12.632812 21.238281 12.367188 21.273438 L 12.300781 21.28125 C 12.167969 21.300781 12.035156 21.332031 11.902344 21.363281 L 11.703125 21.421875 C 11.636719 21.441406 11.570312 21.46875 11.503906 21.496094 C 11.566406 21.527344 11.632812 21.554688 11.703125 21.574219 C 11.769531 21.597656 11.832031 21.617188 11.902344 21.632812 C 12.03125 21.667969 12.167969 21.691406 12.300781 21.710938 L 12.367188 21.722656 C 12.632812 21.757812 12.835938 21.96875 12.875 22.230469 L 12.882812 22.296875 C 12.902344 22.429688 12.929688 22.5625 12.964844 22.695312 L 13.019531 22.894531 C 13.042969 22.960938 13.070312 23.027344 13.097656 23.09375 C 13.125 23.03125 13.152344 22.964844 13.175781 22.894531 C 13.199219 22.828125 13.21875 22.761719 13.230469 22.695312 C 13.265625 22.5625 13.292969 22.429688 13.3125 22.296875 L 13.320312 22.226562 C 13.359375 21.964844 13.566406 21.757812 13.832031 21.71875 C 13.851562 21.71875 13.875 21.714844 13.898438 21.707031 C 14.03125 21.691406 14.164062 21.664062 14.292969 21.628906 L 14.496094 21.574219 C 14.5625 21.550781 14.628906 21.527344 14.695312 21.496094 C 14.628906 21.46875 14.558594 21.445312 14.496094 21.425781 Z M 14.496094 21.425781 "/>
<path style=" stroke:none;fill-rule:nonzero;fill:rgb(95.686275%,76.078431%,24.705882%);fill-opacity:1;" d="M 46.902344 13.335938 C 46.902344 13.894531 46.449219 14.347656 45.886719 14.347656 C 45.328125 14.347656 44.875 13.894531 44.875 13.335938 C 44.875 12.773438 45.328125 12.320312 45.886719 12.320312 C 46.449219 12.320312 46.902344 12.773438 46.902344 13.335938 Z M 46.902344 13.335938 "/>
<path style=" stroke:none;fill-rule:nonzero;fill:rgb(97.254902%,53.333333%,10.588235%);fill-opacity:1;" d="M 32.824219 44.488281 L 32.824219 48.332031 C 32.824219 49.949219 36.660156 51.257812 41.394531 51.257812 C 46.132812 51.257812 49.96875 49.949219 49.96875 48.332031 L 49.96875 44.488281 Z M 32.824219 44.488281 "/>
<path style=" stroke:none;fill-rule:nonzero;fill:rgb(94.117647%,50.196078%,0%);fill-opacity:1;" d="M 41.394531 50.367188 C 36.660156 50.367188 32.824219 49.058594 32.824219 47.441406 L 32.824219 48.332031 C 32.824219 49.949219 36.660156 51.257812 41.394531 51.257812 C 46.132812 51.257812 49.96875 49.949219 49.96875 48.332031 L 49.96875 47.441406 C 49.96875 49.058594 46.132812 50.367188 41.394531 50.367188 Z M 41.394531 50.367188 "/>
<path style=" stroke:none;fill-rule:nonzero;fill:rgb(94.117647%,50.196078%,0%);fill-opacity:1;" d="M 45.753906 50.851562 C 46.003906 50.800781 46.246094 50.746094 46.480469 50.6875 L 46.480469 44.488281 L 45.753906 44.488281 Z M 45.753906 50.851562 "/>
<path style=" stroke:none;fill-rule:nonzero;fill:rgb(94.117647%,50.196078%,0%);fill-opacity:1;" d="M 42.847656 51.214844 C 43.09375 51.199219 43.335938 51.183594 43.574219 51.160156 L 43.574219 44.488281 L 42.847656 44.488281 Z M 42.847656 51.214844 "/>
<path style=" stroke:none;fill-rule:nonzero;fill:rgb(94.117647%,50.196078%,0%);fill-opacity:1;" d="M 48.660156 49.886719 C 48.917969 49.75 49.160156 49.585938 49.386719 49.394531 L 49.386719 44.488281 L 48.660156 44.488281 Z M 48.660156 49.886719 "/>
<path style=" stroke:none;fill-rule:nonzero;fill:rgb(94.117647%,50.196078%,0%);fill-opacity:1;" d="M 37.035156 50.851562 C 37.269531 50.898438 37.511719 50.945312 37.761719 50.980469 L 37.761719 44.488281 L 37.035156 44.488281 Z M 37.035156 50.851562 "/>
<path style=" stroke:none;fill-rule:nonzero;fill:rgb(94.117647%,50.196078%,0%);fill-opacity:1;" d="M 34.132812 49.886719 C 34.367188 50.015625 34.609375 50.125 34.859375 50.222656 L 34.859375 44.488281 L 34.132812 44.488281 Z M 34.132812 49.886719 "/>
<path style=" stroke:none;fill-rule:nonzero;fill:rgb(94.117647%,50.196078%,0%);fill-opacity:1;" d="M 39.941406 51.214844 C 40.183594 51.230469 40.421875 51.242188 40.667969 51.246094 L 40.667969 44.488281 L 39.941406 44.488281 Z M 39.941406 51.214844 "/>
<path style=" stroke:none;fill-rule:nonzero;fill:rgb(95.686275%,66.27451%,24.705882%);fill-opacity:1;" d="M 49.96875 44.488281 C 49.96875 42.875 46.128906 41.566406 41.394531 41.566406 C 36.660156 41.566406 32.824219 42.875 32.824219 44.488281 C 32.824219 46.105469 36.660156 47.414062 41.394531 47.414062 C 46.128906 47.414062 49.96875 46.105469 49.96875 44.488281 Z M 49.96875 44.488281 "/>
<path style=" stroke:none;fill-rule:nonzero;fill:rgb(95.686275%,76.078431%,24.705882%);fill-opacity:1;" d="M 41.394531 46.339844 C 39.332031 46.339844 37.371094 46.078125 35.886719 45.609375 C 34.398438 45.140625 33.941406 44.621094 33.898438 44.488281 C 33.941406 44.363281 34.375 43.851562 35.886719 43.371094 C 37.394531 42.894531 39.332031 42.640625 41.394531 42.640625 C 43.460938 42.640625 45.414062 42.902344 46.902344 43.371094 C 48.390625 43.84375 48.847656 44.363281 48.890625 44.488281 C 48.847656 44.621094 48.414062 45.128906 46.902344 45.609375 C 45.390625 46.089844 43.460938 46.339844 41.394531 46.339844 Z M 41.394531 46.339844 "/>
<path style=" stroke:none;fill-rule:nonzero;fill:rgb(97.254902%,53.333333%,10.588235%);fill-opacity:1;" d="M 32.824219 40.71875 L 32.824219 44.5625 C 32.824219 46.175781 36.660156 47.488281 41.394531 47.488281 C 46.132812 47.488281 49.96875 46.175781 49.96875 44.5625 L 49.96875 40.71875 Z M 32.824219 40.71875 "/>
<path style=" stroke:none;fill-rule:nonzero;fill:rgb(94.117647%,50.196078%,0%);fill-opacity:1;" d="M 41.394531 46.597656 C 36.660156 46.597656 32.824219 45.289062 32.824219 43.671875 L 32.824219 44.5625 C 32.824219 46.175781 36.660156 47.488281 41.394531 47.488281 C 46.132812 47.488281 49.96875 46.175781 49.96875 44.5625 L 49.96875 43.671875 C 49.96875 45.289062 46.132812 46.597656 41.394531 46.597656 Z M 41.394531 46.597656 "/>
<path style=" stroke:none;fill-rule:nonzero;fill:rgb(94.117647%,50.196078%,0%);fill-opacity:1;" d="M 45.753906 47.082031 C 46.003906 47.03125 46.246094 46.976562 46.480469 46.917969 L 46.480469 40.71875 L 45.753906 40.71875 Z M 45.753906 47.082031 "/>
<path style=" stroke:none;fill-rule:nonzero;fill:rgb(94.117647%,50.196078%,0%);fill-opacity:1;" d="M 42.847656 47.445312 C 43.09375 47.429688 43.335938 47.414062 43.574219 47.390625 L 43.574219 40.71875 L 42.847656 40.71875 Z M 42.847656 47.445312 "/>
<path style=" stroke:none;fill-rule:nonzero;fill:rgb(94.117647%,50.196078%,0%);fill-opacity:1;" d="M 48.660156 46.113281 C 48.917969 45.980469 49.164062 45.816406 49.386719 45.625 L 49.386719 40.71875 L 48.660156 40.71875 Z M 48.660156 46.113281 "/>
<path style=" stroke:none;fill-rule:nonzero;fill:rgb(94.117647%,50.196078%,0%);fill-opacity:1;" d="M 37.035156 47.082031 C 37.269531 47.128906 37.511719 47.171875 37.761719 47.210938 L 37.761719 40.71875 L 37.035156 40.71875 Z M 37.035156 47.082031 "/>
<path style=" stroke:none;fill-rule:nonzero;fill:rgb(94.117647%,50.196078%,0%);fill-opacity:1;" d="M 34.132812 46.113281 C 34.367188 46.242188 34.609375 46.355469 34.859375 46.453125 L 34.859375 40.71875 L 34.132812 40.71875 Z M 34.132812 46.113281 "/>
<path style=" stroke:none;fill-rule:nonzero;fill:rgb(94.117647%,50.196078%,0%);fill-opacity:1;" d="M 39.941406 47.445312 C 40.183594 47.460938 40.421875 47.46875 40.667969 47.476562 L 40.667969 40.71875 L 39.941406 40.71875 Z M 39.941406 47.445312 "/>
<path style=" stroke:none;fill-rule:nonzero;fill:rgb(95.686275%,66.27451%,24.705882%);fill-opacity:1;" d="M 49.96875 40.71875 C 49.96875 39.105469 46.128906 37.796875 41.394531 37.796875 C 36.660156 37.796875 32.824219 39.105469 32.824219 40.71875 C 32.824219 42.335938 36.660156 43.644531 41.394531 43.644531 C 46.128906 43.644531 49.96875 42.335938 49.96875 40.71875 Z M 49.96875 40.71875 "/>
<path style=" stroke:none;fill-rule:nonzero;fill:rgb(95.686275%,76.078431%,24.705882%);fill-opacity:1;" d="M 41.394531 42.570312 C 39.332031 42.570312 37.371094 42.308594 35.886719 41.839844 C 34.398438 41.371094 33.941406 40.851562 33.898438 40.71875 C 33.941406 40.59375 34.375 40.078125 35.886719 39.601562 C 37.394531 39.125 39.332031 38.871094 41.394531 38.871094 C 43.460938 38.871094 45.414062 39.128906 46.902344 39.601562 C 48.390625 40.078125 48.847656 40.59375 48.890625 40.71875 C 48.847656 40.851562 48.414062 41.359375 46.902344 41.839844 C 45.390625 42.320312 43.460938 42.570312 41.394531 42.570312 Z M 41.394531 42.570312 "/>
<path style=" stroke:none;fill-rule:nonzero;fill:rgb(97.254902%,53.333333%,10.588235%);fill-opacity:1;" d="M 32.824219 36.949219 L 32.824219 40.789062 C 32.824219 42.40625 36.660156 43.714844 41.394531 43.714844 C 46.132812 43.714844 49.96875 42.40625 49.96875 40.789062 L 49.96875 36.949219 Z M 32.824219 36.949219 "/>
<path style=" stroke:none;fill-rule:nonzero;fill:rgb(94.117647%,50.196078%,0%);fill-opacity:1;" d="M 41.394531 42.828125 C 36.660156 42.828125 32.824219 41.515625 32.824219 39.902344 L 32.824219 40.789062 C 32.824219 42.40625 36.660156 43.714844 41.394531 43.714844 C 46.132812 43.714844 49.96875 42.40625 49.96875 40.789062 L 49.96875 39.902344 C 49.96875 41.515625 46.132812 42.828125 41.394531 42.828125 Z M 41.394531 42.828125 "/>
<path style=" stroke:none;fill-rule:nonzero;fill:rgb(94.117647%,50.196078%,0%);fill-opacity:1;" d="M 45.753906 43.308594 C 46.003906 43.261719 46.246094 43.207031 46.480469 43.144531 L 46.480469 36.949219 L 45.753906 36.949219 Z M 45.753906 43.308594 "/>
<path style=" stroke:none;fill-rule:nonzero;fill:rgb(94.117647%,50.196078%,0%);fill-opacity:1;" d="M 42.847656 43.671875 C 43.09375 43.660156 43.335938 43.640625 43.574219 43.621094 L 43.574219 36.949219 L 42.847656 36.949219 Z M 42.847656 43.671875 "/>
<path style=" stroke:none;fill-rule:nonzero;fill:rgb(94.117647%,50.196078%,0%);fill-opacity:1;" d="M 48.660156 42.34375 C 48.917969 42.207031 49.164062 42.042969 49.386719 41.851562 L 49.386719 36.949219 L 48.660156 36.949219 Z M 48.660156 42.34375 "/>
<path style=" stroke:none;fill-rule:nonzero;fill:rgb(94.117647%,50.196078%,0%);fill-opacity:1;" d="M 37.035156 43.3125 C 37.269531 43.355469 37.511719 43.402344 37.761719 43.441406 L 37.761719 36.949219 L 37.035156 36.949219 Z M 37.035156 43.3125 "/>
<path style=" stroke:none;fill-rule:nonzero;fill:rgb(94.117647%,50.196078%,0%);fill-opacity:1;" d="M 34.132812 42.34375 C 34.367188 42.472656 34.609375 42.585938 34.859375 42.679688 L 34.859375 36.949219 L 34.132812 36.949219 Z M 34.132812 42.34375 "/>
<path style=" stroke:none;fill-rule:nonzero;fill:rgb(94.117647%,50.196078%,0%);fill-opacity:1;" d="M 39.941406 43.671875 C 40.183594 43.691406 40.421875 43.699219 40.667969 43.707031 L 40.667969 36.949219 L 39.941406 36.949219 Z M 39.941406 43.671875 "/>
<path style=" stroke:none;fill-rule:nonzero;fill:rgb(95.686275%,66.27451%,24.705882%);fill-opacity:1;" d="M 49.96875 36.949219 C 49.96875 35.335938 46.128906 34.027344 41.394531 34.027344 C 36.660156 34.027344 32.824219 35.335938 32.824219 36.949219 C 32.824219 38.566406 36.660156 39.875 41.394531 39.875 C 46.128906 39.875 49.96875 38.566406 49.96875 36.949219 Z M 49.96875 36.949219 "/>
<path style=" stroke:none;fill-rule:nonzero;fill:rgb(95.686275%,76.078431%,24.705882%);fill-opacity:1;" d="M 41.394531 38.800781 C 39.332031 38.800781 37.371094 38.539062 35.886719 38.066406 C 34.398438 37.59375 33.941406 37.078125 33.898438 36.949219 C 33.941406 36.820312 34.375 36.308594 35.886719 35.832031 C 37.394531 35.351562 39.332031 35.101562 41.394531 35.101562 C 43.460938 35.101562 45.414062 35.359375 46.902344 35.832031 C 48.390625 36.300781 48.847656 36.820312 48.890625 36.949219 C 48.847656 37.078125 48.414062 37.585938 46.902344 38.066406 C 45.390625 38.546875 43.460938 38.800781 41.394531 38.800781 Z M 41.394531 38.800781 "/>
<path style=" stroke:none;fill-rule:nonzero;fill:rgb(97.254902%,53.333333%,10.588235%);fill-opacity:1;" d="M 32.824219 33.175781 L 32.824219 37.019531 C 32.824219 38.636719 36.660156 39.945312 41.394531 39.945312 C 46.132812 39.945312 49.96875 38.636719 49.96875 37.019531 L 49.96875 33.175781 Z M 32.824219 33.175781 "/>
<path style=" stroke:none;fill-rule:nonzero;fill:rgb(94.117647%,50.196078%,0%);fill-opacity:1;" d="M 41.394531 39.054688 C 36.660156 39.054688 32.824219 37.746094 32.824219 36.132812 L 32.824219 37.019531 C 32.824219 38.636719 36.660156 39.945312 41.394531 39.945312 C 46.132812 39.945312 49.96875 38.636719 49.96875 37.019531 L 49.96875 36.132812 C 49.96875 37.746094 46.132812 39.054688 41.394531 39.054688 Z M 41.394531 39.054688 "/>
<path style=" stroke:none;fill-rule:nonzero;fill:rgb(94.117647%,50.196078%,0%);fill-opacity:1;" d="M 45.753906 39.539062 C 46.003906 39.488281 46.246094 39.433594 46.480469 39.375 L 46.480469 33.175781 L 45.753906 33.175781 Z M 45.753906 39.539062 "/>
<path style=" stroke:none;fill-rule:nonzero;fill:rgb(94.117647%,50.196078%,0%);fill-opacity:1;" d="M 42.847656 39.902344 C 43.09375 39.886719 43.335938 39.871094 43.574219 39.847656 L 43.574219 33.175781 L 42.847656 33.175781 Z M 42.847656 39.902344 "/>
<path style=" stroke:none;fill-rule:nonzero;fill:rgb(94.117647%,50.196078%,0%);fill-opacity:1;" d="M 48.660156 38.574219 C 48.917969 38.4375 49.164062 38.273438 49.386719 38.082031 L 49.386719 33.175781 L 48.660156 33.175781 Z M 48.660156 38.574219 "/>
<path style=" stroke:none;fill-rule:nonzero;fill:rgb(94.117647%,50.196078%,0%);fill-opacity:1;" d="M 37.035156 39.539062 C 37.269531 39.585938 37.511719 39.632812 37.761719 39.671875 L 37.761719 33.175781 L 37.035156 33.175781 Z M 37.035156 39.539062 "/>
<path style=" stroke:none;fill-rule:nonzero;fill:rgb(94.117647%,50.196078%,0%);fill-opacity:1;" d="M 34.132812 38.574219 C 34.367188 38.703125 34.609375 38.816406 34.859375 38.910156 L 34.859375 33.175781 L 34.132812 33.175781 Z M 34.132812 38.574219 "/>
<path style=" stroke:none;fill-rule:nonzero;fill:rgb(94.117647%,50.196078%,0%);fill-opacity:1;" d="M 39.941406 39.902344 L 40.667969 39.9375 L 40.667969 33.175781 L 39.941406 33.175781 Z M 39.941406 39.902344 "/>
<path style=" stroke:none;fill-rule:nonzero;fill:rgb(95.686275%,66.27451%,24.705882%);fill-opacity:1;" d="M 49.96875 33.175781 C 49.96875 31.5625 46.128906 30.253906 41.394531 30.253906 C 36.660156 30.253906 32.824219 31.5625 32.824219 33.175781 C 32.824219 34.792969 36.660156 36.101562 41.394531 36.101562 C 46.128906 36.101562 49.96875 34.792969 49.96875 33.175781 Z M 49.96875 33.175781 "/>
<path style=" stroke:none;fill-rule:nonzero;fill:rgb(95.686275%,76.078431%,24.705882%);fill-opacity:1;" d="M 41.394531 35.027344 C 39.332031 35.027344 37.371094 34.769531 35.886719 34.296875 C 34.398438 33.828125 33.941406 33.308594 33.898438 33.175781 C 33.941406 33.050781 34.375 32.539062 35.886719 32.0625 C 37.394531 31.582031 39.332031 31.328125 41.394531 31.328125 C 43.460938 31.328125 45.414062 31.585938 46.902344 32.0625 C 48.390625 32.535156 48.847656 33.050781 48.890625 33.175781 C 48.847656 33.308594 48.414062 33.816406 46.902344 34.296875 C 45.390625 34.777344 43.460938 35.027344 41.394531 35.027344 Z M 41.394531 35.027344 "/>
<path style=" stroke:none;fill-rule:nonzero;fill:rgb(97.254902%,53.333333%,10.588235%);fill-opacity:1;" d="M 32.824219 29.40625 L 32.824219 33.25 C 32.824219 34.863281 36.660156 36.175781 41.394531 36.175781 C 46.132812 36.175781 49.96875 34.863281 49.96875 33.25 L 49.96875 29.40625 Z M 32.824219 29.40625 "/>
<path style=" stroke:none;fill-rule:nonzero;fill:rgb(94.117647%,50.196078%,0%);fill-opacity:1;" d="M 41.394531 35.285156 C 36.660156 35.285156 32.824219 33.976562 32.824219 32.363281 L 32.824219 33.25 C 32.824219 34.863281 36.660156 36.175781 41.394531 36.175781 C 46.132812 36.175781 49.96875 34.863281 49.96875 33.25 L 49.96875 32.363281 C 49.96875 33.976562 46.132812 35.285156 41.394531 35.285156 Z M 41.394531 35.285156 "/>
<path style=" stroke:none;fill-rule:nonzero;fill:rgb(94.117647%,50.196078%,0%);fill-opacity:1;" d="M 45.753906 35.769531 C 46.003906 35.71875 46.246094 35.664062 46.480469 35.605469 L 46.480469 29.40625 L 45.753906 29.40625 Z M 45.753906 35.769531 "/>
<path style=" stroke:none;fill-rule:nonzero;fill:rgb(94.117647%,50.196078%,0%);fill-opacity:1;" d="M 42.847656 36.132812 C 43.09375 36.117188 43.335938 36.097656 43.574219 36.078125 L 43.574219 29.40625 L 42.847656 29.40625 Z M 42.847656 36.132812 "/>
<path style=" stroke:none;fill-rule:nonzero;fill:rgb(94.117647%,50.196078%,0%);fill-opacity:1;" d="M 48.660156 34.804688 C 48.917969 34.667969 49.164062 34.503906 49.386719 34.3125 L 49.386719 29.40625 L 48.660156 29.40625 Z M 48.660156 34.804688 "/>
<path style=" stroke:none;fill-rule:nonzero;fill:rgb(94.117647%,50.196078%,0%);fill-opacity:1;" d="M 37.035156 35.769531 C 37.269531 35.816406 37.511719 35.859375 37.761719 35.902344 L 37.761719 29.40625 L 37.035156 29.40625 Z M 37.035156 35.769531 "/>
<path style=" stroke:none;fill-rule:nonzero;fill:rgb(94.117647%,50.196078%,0%);fill-opacity:1;" d="M 34.132812 34.804688 C 34.367188 34.929688 34.609375 35.042969 34.859375 35.140625 L 34.859375 29.40625 L 34.132812 29.40625 Z M 34.132812 34.804688 "/>
<path style=" stroke:none;fill-rule:nonzero;fill:rgb(94.117647%,50.196078%,0%);fill-opacity:1;" d="M 39.941406 36.132812 C 40.183594 36.148438 40.421875 36.15625 40.667969 36.164062 L 40.667969 29.40625 L 39.941406 29.40625 Z M 39.941406 36.132812 "/>
<path style=" stroke:none;fill-rule:nonzero;fill:rgb(95.686275%,66.27451%,24.705882%);fill-opacity:1;" d="M 49.96875 29.40625 C 49.96875 27.792969 46.128906 26.484375 41.394531 26.484375 C 36.660156 26.484375 32.824219 27.792969 32.824219 29.40625 C 32.824219 31.023438 36.660156 32.332031 41.394531 32.332031 C 46.128906 32.332031 49.96875 31.023438 49.96875 29.40625 Z M 49.96875 29.40625 "/>
<path style=" stroke:none;fill-rule:nonzero;fill:rgb(95.686275%,76.078431%,24.705882%);fill-opacity:1;" d="M 41.394531 31.257812 C 39.332031 31.257812 37.371094 31 35.886719 30.523438 C 34.398438 30.050781 33.941406 29.535156 33.898438 29.40625 C 33.941406 29.277344 34.375 28.769531 35.886719 28.289062 C 37.394531 27.808594 39.332031 27.558594 41.394531 27.558594 C 43.460938 27.558594 45.414062 27.816406 46.902344 28.289062 C 48.390625 28.757812 48.847656 29.277344 48.890625 29.40625 C 48.847656 29.535156 48.414062 30.046875 46.902344 30.523438 C 45.390625 31 43.460938 31.257812 41.394531 31.257812 Z M 41.394531 31.257812 "/>
<path style=" stroke:none;fill-rule:nonzero;fill:rgb(97.254902%,53.333333%,10.588235%);fill-opacity:1;" d="M 32.824219 25.636719 L 32.824219 29.476562 C 32.824219 31.09375 36.660156 32.402344 41.394531 32.402344 C 46.132812 32.402344 49.96875 31.09375 49.96875 29.476562 L 49.96875 25.636719 Z M 32.824219 25.636719 "/>
<path style=" stroke:none;fill-rule:nonzero;fill:rgb(94.117647%,50.196078%,0%);fill-opacity:1;" d="M 41.394531 31.515625 C 36.660156 31.515625 32.824219 30.203125 32.824219 28.589844 L 32.824219 29.476562 C 32.824219 31.09375 36.660156 32.402344 41.394531 32.402344 C 46.132812 32.402344 49.96875 31.09375 49.96875 29.476562 L 49.96875 28.589844 C 49.96875 30.203125 46.132812 31.515625 41.394531 31.515625 Z M 41.394531 31.515625 "/>
<path style=" stroke:none;fill-rule:nonzero;fill:rgb(94.117647%,50.196078%,0%);fill-opacity:1;" d="M 45.753906 31.996094 C 46.003906 31.949219 46.246094 31.894531 46.480469 31.832031 L 46.480469 25.636719 L 45.753906 25.636719 Z M 45.753906 31.996094 "/>
<path style=" stroke:none;fill-rule:nonzero;fill:rgb(94.117647%,50.196078%,0%);fill-opacity:1;" d="M 42.847656 32.363281 C 43.09375 32.347656 43.335938 32.328125 43.574219 32.308594 L 43.574219 25.636719 L 42.847656 25.636719 Z M 42.847656 32.363281 "/>
<path style=" stroke:none;fill-rule:nonzero;fill:rgb(94.117647%,50.196078%,0%);fill-opacity:1;" d="M 48.660156 31.035156 C 48.917969 30.894531 49.160156 30.730469 49.386719 30.539062 L 49.386719 25.636719 L 48.660156 25.636719 Z M 48.660156 31.035156 "/>
<path style=" stroke:none;fill-rule:nonzero;fill:rgb(94.117647%,50.196078%,0%);fill-opacity:1;" d="M 37.035156 31.996094 C 37.269531 32.042969 37.511719 32.089844 37.761719 32.128906 L 37.761719 25.636719 L 37.035156 25.636719 Z M 37.035156 31.996094 "/>
<path style=" stroke:none;fill-rule:nonzero;fill:rgb(94.117647%,50.196078%,0%);fill-opacity:1;" d="M 34.132812 31.035156 C 34.367188 31.160156 34.609375 31.273438 34.859375 31.371094 L 34.859375 25.636719 L 34.132812 25.636719 Z M 34.132812 31.035156 "/>
<path style=" stroke:none;fill-rule:nonzero;fill:rgb(94.117647%,50.196078%,0%);fill-opacity:1;" d="M 39.941406 32.363281 C 40.183594 32.375 40.421875 32.386719 40.667969 32.394531 L 40.667969 25.636719 L 39.941406 25.636719 Z M 39.941406 32.363281 "/>
<path style=" stroke:none;fill-rule:nonzero;fill:rgb(95.686275%,66.27451%,24.705882%);fill-opacity:1;" d="M 49.96875 25.636719 C 49.96875 24.023438 46.128906 22.714844 41.394531 22.714844 C 36.660156 22.714844 32.824219 24.023438 32.824219 25.636719 C 32.824219 27.253906 36.660156 28.5625 41.394531 28.5625 C 46.128906 28.5625 49.96875 27.253906 49.96875 25.636719 Z M 49.96875 25.636719 "/>
<path style=" stroke:none;fill-rule:nonzero;fill:rgb(95.686275%,76.078431%,24.705882%);fill-opacity:1;" d="M 41.394531 27.488281 C 39.332031 27.488281 37.371094 27.226562 35.886719 26.753906 C 34.398438 26.285156 33.941406 25.765625 33.898438 25.636719 C 33.941406 25.507812 34.375 25 35.886719 24.519531 C 37.394531 24.039062 39.332031 23.789062 41.394531 23.789062 C 43.460938 23.789062 45.414062 24.046875 46.902344 24.519531 C 48.390625 24.988281 48.847656 25.507812 48.890625 25.636719 C 48.847656 25.765625 48.414062 26.273438 46.902344 26.753906 C 45.390625 27.234375 43.460938 27.488281 41.394531 27.488281 Z M 41.394531 27.488281 "/>
<path style=" stroke:none;fill-rule:nonzero;fill:rgb(97.254902%,53.333333%,10.588235%);fill-opacity:1;" d="M 32.824219 21.867188 L 32.824219 25.707031 C 32.824219 27.324219 36.660156 28.632812 41.394531 28.632812 C 46.132812 28.632812 49.96875 27.324219 49.96875 25.707031 L 49.96875 21.867188 Z M 32.824219 21.867188 "/>
<path style=" stroke:none;fill-rule:nonzero;fill:rgb(94.117647%,50.196078%,0%);fill-opacity:1;" d="M 41.394531 27.742188 C 36.660156 27.742188 32.824219 26.433594 32.824219 24.820312 L 32.824219 25.707031 C 32.824219 27.324219 36.660156 28.632812 41.394531 28.632812 C 46.132812 28.632812 49.96875 27.324219 49.96875 25.707031 L 49.96875 24.820312 C 49.96875 26.433594 46.132812 27.742188 41.394531 27.742188 Z M 41.394531 27.742188 "/>
<path style=" stroke:none;fill-rule:nonzero;fill:rgb(94.117647%,50.196078%,0%);fill-opacity:1;" d="M 45.753906 28.226562 C 46.003906 28.175781 46.246094 28.121094 46.480469 28.0625 L 46.480469 21.867188 L 45.753906 21.867188 Z M 45.753906 28.226562 "/>
<path style=" stroke:none;fill-rule:nonzero;fill:rgb(94.117647%,50.196078%,0%);fill-opacity:1;" d="M 42.847656 28.59375 C 43.09375 28.574219 43.335938 28.558594 43.574219 28.539062 L 43.574219 21.867188 L 42.847656 21.867188 Z M 42.847656 28.59375 "/>
<path style=" stroke:none;fill-rule:nonzero;fill:rgb(94.117647%,50.196078%,0%);fill-opacity:1;" d="M 48.660156 27.261719 C 48.917969 27.125 49.164062 26.960938 49.386719 26.769531 L 49.386719 21.867188 L 48.660156 21.867188 Z M 48.660156 27.261719 "/>
<path style=" stroke:none;fill-rule:nonzero;fill:rgb(94.117647%,50.196078%,0%);fill-opacity:1;" d="M 37.035156 28.226562 C 37.269531 28.273438 37.511719 28.320312 37.761719 28.359375 L 37.761719 21.867188 L 37.035156 21.867188 Z M 37.035156 28.226562 "/>
<path style=" stroke:none;fill-rule:nonzero;fill:rgb(94.117647%,50.196078%,0%);fill-opacity:1;" d="M 34.132812 27.265625 C 34.367188 27.390625 34.609375 27.503906 34.859375 27.601562 L 34.859375 21.867188 L 34.132812 21.867188 Z M 34.132812 27.265625 "/>
<path style=" stroke:none;fill-rule:nonzero;fill:rgb(94.117647%,50.196078%,0%);fill-opacity:1;" d="M 39.941406 28.59375 L 40.667969 28.625 L 40.667969 21.867188 L 39.941406 21.867188 Z M 39.941406 28.59375 "/>
<path style=" stroke:none;fill-rule:nonzero;fill:rgb(95.686275%,66.27451%,24.705882%);fill-opacity:1;" d="M 49.96875 21.867188 C 49.96875 20.25 46.128906 18.941406 41.394531 18.941406 C 36.660156 18.941406 32.824219 20.25 32.824219 21.867188 C 32.824219 23.480469 36.660156 24.789062 41.394531 24.789062 C 46.128906 24.789062 49.96875 23.480469 49.96875 21.867188 Z M 49.96875 21.867188 "/>
<path style=" stroke:none;fill-rule:nonzero;fill:rgb(95.686275%,76.078431%,24.705882%);fill-opacity:1;" d="M 41.394531 23.714844 C 39.332031 23.714844 37.371094 23.457031 35.886719 22.984375 C 34.398438 22.515625 33.941406 21.996094 33.898438 21.867188 C 33.941406 21.738281 34.375 21.230469 35.886719 20.75 C 37.394531 20.269531 39.332031 20.015625 41.394531 20.015625 C 43.460938 20.015625 45.414062 20.273438 46.902344 20.75 C 48.390625 21.222656 48.847656 21.738281 48.890625 21.867188 C 48.847656 21.996094 48.414062 22.503906 46.902344 22.984375 C 45.390625 23.464844 43.460938 23.714844 41.394531 23.714844 Z M 41.394531 23.714844 "/>
<path style=" stroke:none;fill-rule:nonzero;fill:rgb(97.254902%,53.333333%,10.588235%);fill-opacity:1;" d="M 14.761719 44.488281 L 14.761719 48.332031 C 14.761719 49.949219 18.597656 51.257812 23.335938 51.257812 C 28.070312 51.257812 31.90625 49.949219 31.90625 48.332031 L 31.90625 44.488281 Z M 14.761719 44.488281 "/>
<path style=" stroke:none;fill-rule:nonzero;fill:rgb(94.117647%,50.196078%,0%);fill-opacity:1;" d="M 23.335938 50.367188 C 18.597656 50.367188 14.761719 49.058594 14.761719 47.441406 L 14.761719 48.332031 C 14.761719 49.949219 18.597656 51.257812 23.335938 51.257812 C 28.070312 51.257812 31.90625 49.949219 31.90625 48.332031 L 31.90625 47.441406 C 31.90625 49.058594 28.070312 50.367188 23.335938 50.367188 Z M 23.335938 50.367188 "/>
<path style=" stroke:none;fill-rule:nonzero;fill:rgb(94.117647%,50.196078%,0%);fill-opacity:1;" d="M 27.691406 50.851562 C 27.941406 50.800781 28.1875 50.746094 28.417969 50.6875 L 28.417969 44.488281 L 27.691406 44.488281 Z M 27.691406 50.851562 "/>
<path style=" stroke:none;fill-rule:nonzero;fill:rgb(94.117647%,50.196078%,0%);fill-opacity:1;" d="M 24.789062 51.214844 C 25.035156 51.199219 25.273438 51.183594 25.511719 51.160156 L 25.511719 44.488281 L 24.789062 44.488281 Z M 24.789062 51.214844 "/>
<path style=" stroke:none;fill-rule:nonzero;fill:rgb(94.117647%,50.196078%,0%);fill-opacity:1;" d="M 30.597656 49.886719 C 30.855469 49.75 31.101562 49.585938 31.324219 49.394531 L 31.324219 44.488281 L 30.597656 44.488281 Z M 30.597656 49.886719 "/>
<path style=" stroke:none;fill-rule:nonzero;fill:rgb(94.117647%,50.196078%,0%);fill-opacity:1;" d="M 18.976562 50.851562 C 19.210938 50.898438 19.453125 50.945312 19.703125 50.980469 L 19.703125 44.488281 L 18.976562 44.488281 Z M 18.976562 50.851562 "/>
<path style=" stroke:none;fill-rule:nonzero;fill:rgb(94.117647%,50.196078%,0%);fill-opacity:1;" d="M 16.070312 49.886719 C 16.304688 50.015625 16.546875 50.125 16.796875 50.222656 L 16.796875 44.488281 L 16.070312 44.488281 Z M 16.070312 49.886719 "/>
<path style=" stroke:none;fill-rule:nonzero;fill:rgb(94.117647%,50.196078%,0%);fill-opacity:1;" d="M 21.882812 51.214844 C 22.121094 51.230469 22.363281 51.242188 22.609375 51.246094 L 22.609375 44.488281 L 21.882812 44.488281 Z M 21.882812 51.214844 "/>
<path style=" stroke:none;fill-rule:nonzero;fill:rgb(95.686275%,66.27451%,24.705882%);fill-opacity:1;" d="M 31.90625 44.488281 C 31.90625 42.875 28.070312 41.566406 23.335938 41.566406 C 18.601562 41.566406 14.761719 42.875 14.761719 44.488281 C 14.761719 46.105469 18.601562 47.414062 23.335938 47.414062 C 28.070312 47.414062 31.90625 46.105469 31.90625 44.488281 Z M 31.90625 44.488281 "/>
<path style=" stroke:none;fill-rule:nonzero;fill:rgb(95.686275%,76.078431%,24.705882%);fill-opacity:1;" d="M 23.335938 46.339844 C 21.269531 46.339844 19.3125 46.078125 17.824219 45.609375 C 16.335938 45.140625 15.882812 44.621094 15.835938 44.488281 C 15.882812 44.363281 16.3125 43.851562 17.824219 43.371094 C 19.335938 42.894531 21.269531 42.640625 23.335938 42.640625 C 25.398438 42.640625 27.355469 42.902344 28.84375 43.371094 C 30.332031 43.84375 30.789062 44.363281 30.832031 44.488281 C 30.789062 44.621094 30.355469 45.128906 28.84375 45.609375 C 27.335938 46.089844 25.398438 46.339844 23.335938 46.339844 Z M 23.335938 46.339844 "/>
<path style=" stroke:none;fill-rule:nonzero;fill:rgb(97.254902%,53.333333%,10.588235%);fill-opacity:1;" d="M 14.761719 40.71875 L 14.761719 44.5625 C 14.761719 46.175781 18.597656 47.488281 23.335938 47.488281 C 28.070312 47.488281 31.90625 46.175781 31.90625 44.5625 L 31.90625 40.71875 Z M 14.761719 40.71875 "/>
<path style=" stroke:none;fill-rule:nonzero;fill:rgb(94.117647%,50.196078%,0%);fill-opacity:1;" d="M 23.335938 46.597656 C 18.597656 46.597656 14.761719 45.289062 14.761719 43.671875 L 14.761719 44.5625 C 14.761719 46.175781 18.597656 47.488281 23.335938 47.488281 C 28.070312 47.488281 31.90625 46.175781 31.90625 44.5625 L 31.90625 43.671875 C 31.90625 45.289062 28.070312 46.597656 23.335938 46.597656 Z M 23.335938 46.597656 "/>
<path style=" stroke:none;fill-rule:nonzero;fill:rgb(94.117647%,50.196078%,0%);fill-opacity:1;" d="M 27.691406 47.082031 C 27.941406 47.03125 28.1875 46.976562 28.417969 46.917969 L 28.417969 40.71875 L 27.691406 40.71875 Z M 27.691406 47.082031 "/>
<path style=" stroke:none;fill-rule:nonzero;fill:rgb(94.117647%,50.196078%,0%);fill-opacity:1;" d="M 24.789062 47.445312 C 25.035156 47.429688 25.273438 47.414062 25.511719 47.390625 L 25.511719 40.71875 L 24.789062 40.71875 Z M 24.789062 47.445312 "/>
<path style=" stroke:none;fill-rule:nonzero;fill:rgb(94.117647%,50.196078%,0%);fill-opacity:1;" d="M 30.597656 46.113281 C 30.859375 45.980469 31.101562 45.816406 31.324219 45.625 L 31.324219 40.71875 L 30.597656 40.71875 Z M 30.597656 46.113281 "/>
<path style=" stroke:none;fill-rule:nonzero;fill:rgb(94.117647%,50.196078%,0%);fill-opacity:1;" d="M 18.976562 47.082031 C 19.210938 47.128906 19.453125 47.171875 19.703125 47.210938 L 19.703125 40.71875 L 18.976562 40.71875 Z M 18.976562 47.082031 "/>
<path style=" stroke:none;fill-rule:nonzero;fill:rgb(94.117647%,50.196078%,0%);fill-opacity:1;" d="M 16.070312 46.113281 C 16.304688 46.242188 16.546875 46.355469 16.796875 46.453125 L 16.796875 40.71875 L 16.070312 40.71875 Z M 16.070312 46.113281 "/>
<path style=" stroke:none;fill-rule:nonzero;fill:rgb(94.117647%,50.196078%,0%);fill-opacity:1;" d="M 21.882812 47.445312 C 22.121094 47.460938 22.363281 47.46875 22.609375 47.476562 L 22.609375 40.71875 L 21.882812 40.71875 Z M 21.882812 47.445312 "/>
<path style=" stroke:none;fill-rule:nonzero;fill:rgb(95.686275%,66.27451%,24.705882%);fill-opacity:1;" d="M 31.90625 40.71875 C 31.90625 39.105469 28.070312 37.796875 23.335938 37.796875 C 18.601562 37.796875 14.761719 39.105469 14.761719 40.71875 C 14.761719 42.335938 18.601562 43.644531 23.335938 43.644531 C 28.070312 43.644531 31.90625 42.335938 31.90625 40.71875 Z M 31.90625 40.71875 "/>
<path style=" stroke:none;fill-rule:nonzero;fill:rgb(95.686275%,76.078431%,24.705882%);fill-opacity:1;" d="M 23.335938 42.570312 C 21.269531 42.570312 19.3125 42.308594 17.824219 41.839844 C 16.335938 41.371094 15.882812 40.851562 15.835938 40.71875 C 15.882812 40.59375 16.3125 40.078125 17.824219 39.601562 C 19.335938 39.125 21.269531 38.871094 23.335938 38.871094 C 25.398438 38.871094 27.355469 39.128906 28.84375 39.601562 C 30.332031 40.078125 30.789062 40.59375 30.832031 40.71875 C 30.789062 40.851562 30.355469 41.359375 28.84375 41.839844 C 27.335938 42.320312 25.398438 42.570312 23.335938 42.570312 Z M 23.335938 42.570312 "/>
<path style=" stroke:none;fill-rule:nonzero;fill:rgb(97.254902%,53.333333%,10.588235%);fill-opacity:1;" d="M 14.761719 36.949219 L 14.761719 40.789062 C 14.761719 42.40625 18.597656 43.714844 23.335938 43.714844 C 28.070312 43.714844 31.90625 42.40625 31.90625 40.789062 L 31.90625 36.949219 Z M 14.761719 36.949219 "/>
<path style=" stroke:none;fill-rule:nonzero;fill:rgb(94.117647%,50.196078%,0%);fill-opacity:1;" d="M 23.335938 42.828125 C 18.597656 42.828125 14.761719 41.515625 14.761719 39.902344 L 14.761719 40.789062 C 14.761719 42.40625 18.597656 43.714844 23.335938 43.714844 C 28.070312 43.714844 31.90625 42.40625 31.90625 40.789062 L 31.90625 39.902344 C 31.90625 41.515625 28.070312 42.828125 23.335938 42.828125 Z M 23.335938 42.828125 "/>
<path style=" stroke:none;fill-rule:nonzero;fill:rgb(94.117647%,50.196078%,0%);fill-opacity:1;" d="M 27.691406 43.308594 C 27.941406 43.261719 28.1875 43.207031 28.417969 43.144531 L 28.417969 36.949219 L 27.691406 36.949219 Z M 27.691406 43.308594 "/>
<path style=" stroke:none;fill-rule:nonzero;fill:rgb(94.117647%,50.196078%,0%);fill-opacity:1;" d="M 24.789062 43.671875 C 25.035156 43.660156 25.273438 43.640625 25.511719 43.621094 L 25.511719 36.949219 L 24.789062 36.949219 Z M 24.789062 43.671875 "/>
<path style=" stroke:none;fill-rule:nonzero;fill:rgb(94.117647%,50.196078%,0%);fill-opacity:1;" d="M 30.597656 42.34375 C 30.859375 42.207031 31.101562 42.042969 31.324219 41.851562 L 31.324219 36.949219 L 30.597656 36.949219 Z M 30.597656 42.34375 "/>
<path style=" stroke:none;fill-rule:nonzero;fill:rgb(94.117647%,50.196078%,0%);fill-opacity:1;" d="M 18.976562 43.3125 C 19.210938 43.355469 19.453125 43.402344 19.703125 43.441406 L 19.703125 36.949219 L 18.976562 36.949219 Z M 18.976562 43.3125 "/>
<path style=" stroke:none;fill-rule:nonzero;fill:rgb(94.117647%,50.196078%,0%);fill-opacity:1;" d="M 16.070312 42.34375 C 16.304688 42.472656 16.546875 42.585938 16.796875 42.679688 L 16.796875 36.949219 L 16.070312 36.949219 Z M 16.070312 42.34375 "/>
<path style=" stroke:none;fill-rule:nonzero;fill:rgb(94.117647%,50.196078%,0%);fill-opacity:1;" d="M 21.882812 43.671875 C 22.121094 43.691406 22.363281 43.699219 22.609375 43.707031 L 22.609375 36.949219 L 21.882812 36.949219 Z M 21.882812 43.671875 "/>
<path style=" stroke:none;fill-rule:nonzero;fill:rgb(95.686275%,66.27451%,24.705882%);fill-opacity:1;" d="M 31.90625 36.949219 C 31.90625 35.335938 28.070312 34.027344 23.335938 34.027344 C 18.601562 34.027344 14.761719 35.335938 14.761719 36.949219 C 14.761719 38.566406 18.601562 39.875 23.335938 39.875 C 28.070312 39.875 31.90625 38.566406 31.90625 36.949219 Z M 31.90625 36.949219 "/>
<path style=" stroke:none;fill-rule:nonzero;fill:rgb(95.686275%,76.078431%,24.705882%);fill-opacity:1;" d="M 23.335938 38.800781 C 21.269531 38.800781 19.3125 38.539062 17.824219 38.066406 C 16.335938 37.59375 15.882812 37.078125 15.835938 36.949219 C 15.882812 36.820312 16.3125 36.308594 17.824219 35.832031 C 19.335938 35.351562 21.269531 35.101562 23.335938 35.101562 C 25.398438 35.101562 27.355469 35.359375 28.84375 35.832031 C 30.332031 36.300781 30.789062 36.820312 30.832031 36.949219 C 30.789062 37.078125 30.355469 37.585938 28.84375 38.066406 C 27.335938 38.546875 25.398438 38.800781 23.335938 38.800781 Z M 23.335938 38.800781 "/>
<path style=" stroke:none;fill-rule:nonzero;fill:rgb(97.254902%,53.333333%,10.588235%);fill-opacity:1;" d="M 14.761719 33.175781 L 14.761719 37.019531 C 14.761719 38.636719 18.597656 39.945312 23.335938 39.945312 C 28.070312 39.945312 31.90625 38.636719 31.90625 37.019531 L 31.90625 33.175781 Z M 14.761719 33.175781 "/>
<path style=" stroke:none;fill-rule:nonzero;fill:rgb(94.117647%,50.196078%,0%);fill-opacity:1;" d="M 23.335938 39.054688 C 18.597656 39.054688 14.761719 37.746094 14.761719 36.132812 L 14.761719 37.019531 C 14.761719 38.636719 18.597656 39.945312 23.335938 39.945312 C 28.070312 39.945312 31.90625 38.636719 31.90625 37.019531 L 31.90625 36.132812 C 31.90625 37.746094 28.070312 39.054688 23.335938 39.054688 Z M 23.335938 39.054688 "/>
<path style=" stroke:none;fill-rule:nonzero;fill:rgb(94.117647%,50.196078%,0%);fill-opacity:1;" d="M 27.691406 39.539062 C 27.941406 39.488281 28.1875 39.433594 28.417969 39.375 L 28.417969 33.175781 L 27.691406 33.175781 Z M 27.691406 39.539062 "/>
<path style=" stroke:none;fill-rule:nonzero;fill:rgb(94.117647%,50.196078%,0%);fill-opacity:1;" d="M 24.789062 39.902344 C 25.035156 39.886719 25.273438 39.871094 25.511719 39.847656 L 25.511719 33.175781 L 24.789062 33.175781 Z M 24.789062 39.902344 "/>
<path style=" stroke:none;fill-rule:nonzero;fill:rgb(94.117647%,50.196078%,0%);fill-opacity:1;" d="M 30.597656 38.574219 C 30.859375 38.4375 31.101562 38.273438 31.324219 38.082031 L 31.324219 33.175781 L 30.597656 33.175781 Z M 30.597656 38.574219 "/>
<path style=" stroke:none;fill-rule:nonzero;fill:rgb(94.117647%,50.196078%,0%);fill-opacity:1;" d="M 18.976562 39.539062 C 19.210938 39.585938 19.453125 39.632812 19.703125 39.671875 L 19.703125 33.175781 L 18.976562 33.175781 Z M 18.976562 39.539062 "/>
<path style=" stroke:none;fill-rule:nonzero;fill:rgb(94.117647%,50.196078%,0%);fill-opacity:1;" d="M 16.070312 38.574219 C 16.304688 38.703125 16.546875 38.816406 16.796875 38.910156 L 16.796875 33.175781 L 16.070312 33.175781 Z M 16.070312 38.574219 "/>
<path style=" stroke:none;fill-rule:nonzero;fill:rgb(94.117647%,50.196078%,0%);fill-opacity:1;" d="M 21.882812 39.902344 L 22.609375 39.9375 L 22.609375 33.175781 L 21.882812 33.175781 Z M 21.882812 39.902344 "/>
<path style=" stroke:none;fill-rule:nonzero;fill:rgb(95.686275%,66.27451%,24.705882%);fill-opacity:1;" d="M 31.90625 33.175781 C 31.90625 31.5625 28.070312 30.253906 23.335938 30.253906 C 18.601562 30.253906 14.761719 31.5625 14.761719 33.175781 C 14.761719 34.792969 18.601562 36.101562 23.335938 36.101562 C 28.070312 36.101562 31.90625 34.792969 31.90625 33.175781 Z M 31.90625 33.175781 "/>
<path style=" stroke:none;fill-rule:nonzero;fill:rgb(95.686275%,76.078431%,24.705882%);fill-opacity:1;" d="M 23.335938 35.027344 C 21.269531 35.027344 19.3125 34.769531 17.824219 34.296875 C 16.335938 33.828125 15.882812 33.308594 15.835938 33.175781 C 15.882812 33.050781 16.3125 32.539062 17.824219 32.0625 C 19.335938 31.582031 21.269531 31.328125 23.335938 31.328125 C 25.398438 31.328125 27.355469 31.585938 28.84375 32.0625 C 30.332031 32.535156 30.789062 33.050781 30.832031 33.175781 C 30.789062 33.308594 30.355469 33.816406 28.84375 34.296875 C 27.335938 34.777344 25.398438 35.027344 23.335938 35.027344 Z M 23.335938 35.027344 "/>
<path style=" stroke:none;fill-rule:nonzero;fill:rgb(97.254902%,53.333333%,10.588235%);fill-opacity:1;" d="M 14.761719 29.40625 L 14.761719 33.25 C 14.761719 34.863281 18.597656 36.175781 23.335938 36.175781 C 28.070312 36.175781 31.90625 34.863281 31.90625 33.25 L 31.90625 29.40625 Z M 14.761719 29.40625 "/>
<path style=" stroke:none;fill-rule:nonzero;fill:rgb(94.117647%,50.196078%,0%);fill-opacity:1;" d="M 23.335938 35.285156 C 18.597656 35.285156 14.761719 33.976562 14.761719 32.363281 L 14.761719 33.25 C 14.761719 34.863281 18.597656 36.175781 23.335938 36.175781 C 28.070312 36.175781 31.90625 34.863281 31.90625 33.25 L 31.90625 32.363281 C 31.90625 33.976562 28.070312 35.285156 23.335938 35.285156 Z M 23.335938 35.285156 "/>
<path style=" stroke:none;fill-rule:nonzero;fill:rgb(94.117647%,50.196078%,0%);fill-opacity:1;" d="M 27.691406 35.769531 C 27.941406 35.71875 28.1875 35.664062 28.417969 35.605469 L 28.417969 29.40625 L 27.691406 29.40625 Z M 27.691406 35.769531 "/>
<path style=" stroke:none;fill-rule:nonzero;fill:rgb(94.117647%,50.196078%,0%);fill-opacity:1;" d="M 24.789062 36.132812 C 25.035156 36.117188 25.273438 36.097656 25.511719 36.078125 L 25.511719 29.40625 L 24.789062 29.40625 Z M 24.789062 36.132812 "/>
<path style=" stroke:none;fill-rule:nonzero;fill:rgb(94.117647%,50.196078%,0%);fill-opacity:1;" d="M 30.597656 34.804688 C 30.859375 34.667969 31.101562 34.503906 31.324219 34.3125 L 31.324219 29.40625 L 30.597656 29.40625 Z M 30.597656 34.804688 "/>
<path style=" stroke:none;fill-rule:nonzero;fill:rgb(94.117647%,50.196078%,0%);fill-opacity:1;" d="M 18.976562 35.769531 C 19.210938 35.816406 19.453125 35.859375 19.703125 35.902344 L 19.703125 29.40625 L 18.976562 29.40625 Z M 18.976562 35.769531 "/>
<path style=" stroke:none;fill-rule:nonzero;fill:rgb(94.117647%,50.196078%,0%);fill-opacity:1;" d="M 16.070312 34.804688 C 16.304688 34.929688 16.546875 35.042969 16.796875 35.140625 L 16.796875 29.40625 L 16.070312 29.40625 Z M 16.070312 34.804688 "/>
<path style=" stroke:none;fill-rule:nonzero;fill:rgb(94.117647%,50.196078%,0%);fill-opacity:1;" d="M 21.882812 36.132812 C 22.121094 36.148438 22.363281 36.15625 22.609375 36.164062 L 22.609375 29.40625 L 21.882812 29.40625 Z M 21.882812 36.132812 "/>
<path style=" stroke:none;fill-rule:nonzero;fill:rgb(95.686275%,66.27451%,24.705882%);fill-opacity:1;" d="M 31.90625 29.40625 C 31.90625 27.792969 28.070312 26.484375 23.335938 26.484375 C 18.601562 26.484375 14.761719 27.792969 14.761719 29.40625 C 14.761719 31.023438 18.601562 32.332031 23.335938 32.332031 C 28.070312 32.332031 31.90625 31.023438 31.90625 29.40625 Z M 31.90625 29.40625 "/>
<path style=" stroke:none;fill-rule:nonzero;fill:rgb(95.686275%,76.078431%,24.705882%);fill-opacity:1;" d="M 23.335938 31.257812 C 21.269531 31.257812 19.3125 31 17.824219 30.523438 C 16.335938 30.050781 15.882812 29.535156 15.835938 29.40625 C 15.882812 29.277344 16.3125 28.769531 17.824219 28.289062 C 19.335938 27.808594 21.269531 27.558594 23.335938 27.558594 C 25.398438 27.558594 27.355469 27.816406 28.84375 28.289062 C 30.332031 28.757812 30.789062 29.277344 30.832031 29.40625 C 30.789062 29.535156 30.355469 30.046875 28.84375 30.523438 C 27.335938 31 25.398438 31.257812 23.335938 31.257812 Z M 23.335938 31.257812 "/>
<path style=" stroke:none;fill-rule:nonzero;fill:rgb(97.254902%,53.333333%,10.588235%);fill-opacity:1;" d="M 14.761719 25.636719 L 14.761719 29.476562 C 14.761719 31.09375 18.597656 32.402344 23.335938 32.402344 C 28.070312 32.402344 31.90625 31.09375 31.90625 29.476562 L 31.90625 25.636719 Z M 14.761719 25.636719 "/>
<path style=" stroke:none;fill-rule:nonzero;fill:rgb(94.117647%,50.196078%,0%);fill-opacity:1;" d="M 23.335938 31.515625 C 18.597656 31.515625 14.761719 30.203125 14.761719 28.589844 L 14.761719 29.476562 C 14.761719 31.09375 18.597656 32.402344 23.335938 32.402344 C 28.070312 32.402344 31.90625 31.09375 31.90625 29.476562 L 31.90625 28.589844 C 31.90625 30.203125 28.070312 31.515625 23.335938 31.515625 Z M 23.335938 31.515625 "/>
<path style=" stroke:none;fill-rule:nonzero;fill:rgb(94.117647%,50.196078%,0%);fill-opacity:1;" d="M 27.691406 31.996094 C 27.941406 31.949219 28.1875 31.894531 28.417969 31.832031 L 28.417969 25.636719 L 27.691406 25.636719 Z M 27.691406 31.996094 "/>
<path style=" stroke:none;fill-rule:nonzero;fill:rgb(94.117647%,50.196078%,0%);fill-opacity:1;" d="M 24.789062 32.363281 C 25.035156 32.347656 25.273438 32.328125 25.511719 32.308594 L 25.511719 25.636719 L 24.789062 25.636719 Z M 24.789062 32.363281 "/>
<path style=" stroke:none;fill-rule:nonzero;fill:rgb(94.117647%,50.196078%,0%);fill-opacity:1;" d="M 30.597656 31.035156 C 30.855469 30.894531 31.101562 30.730469 31.324219 30.539062 L 31.324219 25.636719 L 30.597656 25.636719 Z M 30.597656 31.035156 "/>
<path style=" stroke:none;fill-rule:nonzero;fill:rgb(94.117647%,50.196078%,0%);fill-opacity:1;" d="M 18.976562 31.996094 C 19.210938 32.042969 19.453125 32.089844 19.703125 32.128906 L 19.703125 25.636719 L 18.976562 25.636719 Z M 18.976562 31.996094 "/>
<path style=" stroke:none;fill-rule:nonzero;fill:rgb(94.117647%,50.196078%,0%);fill-opacity:1;" d="M 16.070312 31.035156 C 16.304688 31.160156 16.546875 31.273438 16.796875 31.371094 L 16.796875 25.636719 L 16.070312 25.636719 Z M 16.070312 31.035156 "/>
<path style=" stroke:none;fill-rule:nonzero;fill:rgb(94.117647%,50.196078%,0%);fill-opacity:1;" d="M 21.882812 32.363281 C 22.121094 32.375 22.363281 32.386719 22.609375 32.394531 L 22.609375 25.636719 L 21.882812 25.636719 Z M 21.882812 32.363281 "/>
<path style=" stroke:none;fill-rule:nonzero;fill:rgb(95.686275%,66.27451%,24.705882%);fill-opacity:1;" d="M 31.90625 25.636719 C 31.90625 24.023438 28.070312 22.714844 23.335938 22.714844 C 18.601562 22.714844 14.761719 24.023438 14.761719 25.636719 C 14.761719 27.253906 18.601562 28.5625 23.335938 28.5625 C 28.070312 28.5625 31.90625 27.253906 31.90625 25.636719 Z M 31.90625 25.636719 "/>
<path style=" stroke:none;fill-rule:nonzero;fill:rgb(95.686275%,76.078431%,24.705882%);fill-opacity:1;" d="M 23.335938 27.488281 C 21.269531 27.488281 19.3125 27.226562 17.824219 26.753906 C 16.335938 26.285156 15.882812 25.765625 15.835938 25.636719 C 15.882812 25.507812 16.3125 25 17.824219 24.519531 C 19.335938 24.039062 21.269531 23.789062 23.335938 23.789062 C 25.398438 23.789062 27.355469 24.046875 28.84375 24.519531 C 30.332031 24.988281 30.789062 25.507812 30.832031 25.636719 C 30.789062 25.765625 30.355469 26.273438 28.84375 26.753906 C 27.335938 27.234375 25.398438 27.488281 23.335938 27.488281 Z M 23.335938 27.488281 "/>
<path style=" stroke:none;fill-rule:nonzero;fill:rgb(81.176471%,41.960784%,0%);fill-opacity:1;" d="M 32.824219 34.820312 L 32.824219 48.332031 C 32.824219 48.980469 33.4375 49.578125 34.476562 50.0625 C 36.035156 50.789062 38.554688 51.257812 41.394531 51.257812 C 41.671875 51.257812 41.941406 51.253906 42.214844 51.246094 C 42.929688 49.710938 43.296875 48.039062 43.296875 46.347656 C 43.296875 40.328125 38.699219 35.375 32.824219 34.820312 Z M 32.824219 34.820312 "/>
<path style=" stroke:none;fill-rule:nonzero;fill:rgb(81.176471%,41.960784%,0%);fill-opacity:1;" d="M 24.789062 51.214844 L 24.960938 51.207031 L 24.980469 51.207031 L 25.140625 51.195312 L 25.171875 51.195312 L 25.324219 51.183594 L 25.359375 51.183594 C 26.207031 51.117188 27.046875 50.996094 27.878906 50.824219 L 28.0625 50.785156 L 28.238281 50.746094 C 28.242188 50.746094 28.242188 50.746094 28.242188 50.742188 C 29.292969 50.492188 30.171875 50.164062 30.804688 49.78125 L 30.898438 49.722656 L 30.902344 49.722656 L 30.992188 49.660156 L 31 49.660156 L 31.082031 49.601562 L 31.089844 49.601562 L 31.164062 49.542969 L 31.171875 49.542969 L 31.246094 49.480469 L 31.25 49.480469 L 31.324219 49.421875 C 31.699219 49.089844 31.90625 48.734375 31.90625 48.359375 L 31.90625 34.769531 L 31.710938 34.769531 C 25.3125 34.769531 20.128906 39.957031 20.128906 46.351562 C 20.125 48.011719 20.480469 49.65625 21.171875 51.167969 C 21.863281 51.230469 22.589844 51.261719 23.335938 51.261719 C 23.832031 51.257812 24.316406 51.246094 24.789062 51.214844 Z M 24.789062 51.214844 "/>
<path style=" stroke:none;fill-rule:nonzero;fill:rgb(97.254902%,53.333333%,10.588235%);fill-opacity:1;" d="M 41.425781 46.347656 C 41.425781 51.714844 37.078125 56.0625 31.710938 56.0625 C 26.347656 56.0625 21.996094 51.714844 21.996094 46.347656 C 21.996094 40.984375 26.347656 36.632812 31.710938 36.632812 C 37.078125 36.632812 41.425781 40.984375 41.425781 46.347656 Z M 41.425781 46.347656 "/>
<path style=" stroke:none;fill-rule:nonzero;fill:rgb(94.117647%,50.196078%,0%);fill-opacity:1;" d="M 40.296875 46.347656 C 40.296875 51.089844 36.453125 54.933594 31.710938 54.933594 C 26.96875 54.933594 23.125 51.089844 23.125 46.347656 C 23.125 41.605469 26.96875 37.761719 31.710938 37.761719 C 36.453125 37.761719 40.296875 41.605469 40.296875 46.347656 Z M 40.296875 46.347656 "/>
<path style=" stroke:none;fill-rule:nonzero;fill:rgb(95.686275%,76.078431%,24.705882%);fill-opacity:1;" d="M 39.328125 46.347656 C 39.328125 50.554688 35.917969 53.964844 31.710938 53.964844 C 27.503906 53.964844 24.097656 50.554688 24.097656 46.347656 C 24.097656 42.144531 27.503906 38.734375 31.710938 38.734375 C 35.917969 38.734375 39.328125 42.144531 39.328125 46.347656 Z M 39.328125 46.347656 "/>
<path style=" stroke:none;fill-rule:nonzero;fill:rgb(98.039216%,83.529412%,39.215686%);fill-opacity:1;" d="M 38.621094 44.757812 C 38.800781 44.757812 38.980469 44.75 39.15625 44.734375 C 38.445312 41.433594 35.589844 38.929688 32.121094 38.742188 C 32.378906 42.105469 35.191406 44.757812 38.621094 44.757812 Z M 38.621094 44.757812 "/>
<path style=" stroke:none;fill-rule:nonzero;fill:rgb(95.686275%,66.27451%,24.705882%);fill-opacity:1;" d="M 31.40625 53.484375 C 30.785156 53.484375 30.28125 52.980469 30.28125 52.363281 L 30.28125 51.007812 L 28.203125 51.007812 C 27.789062 51.03125 27.394531 50.820312 27.183594 50.464844 C 26.96875 50.109375 26.96875 49.664062 27.183594 49.308594 C 27.394531 48.953125 27.789062 48.742188 28.203125 48.765625 L 32.902344 48.765625 C 33.222656 48.765625 33.480469 48.503906 33.480469 48.1875 C 33.480469 47.867188 33.222656 47.605469 32.902344 47.605469 L 29.902344 47.605469 C 28.875 47.640625 27.90625 47.109375 27.378906 46.222656 C 26.855469 45.335938 26.855469 44.234375 27.378906 43.347656 C 27.90625 42.460938 28.875 41.929688 29.902344 41.964844 L 30.28125 41.964844 L 30.28125 41.070312 C 30.3125 40.472656 30.804688 40.003906 31.402344 40.003906 C 32 40.003906 32.492188 40.472656 32.523438 41.070312 L 32.523438 41.964844 L 34.605469 41.964844 C 35.019531 41.941406 35.414062 42.152344 35.628906 42.507812 C 35.839844 42.863281 35.839844 43.308594 35.628906 43.664062 C 35.414062 44.019531 35.019531 44.230469 34.605469 44.207031 L 29.902344 44.207031 C 29.6875 44.191406 29.480469 44.296875 29.367188 44.484375 C 29.253906 44.667969 29.253906 44.902344 29.367188 45.085938 C 29.480469 45.273438 29.6875 45.378906 29.902344 45.363281 L 32.902344 45.363281 C 34.460938 45.363281 35.726562 46.625 35.726562 48.1875 C 35.726562 49.746094 34.460938 51.007812 32.902344 51.007812 L 32.523438 51.007812 L 32.523438 52.363281 C 32.523438 52.980469 32.023438 53.484375 31.40625 53.484375 Z M 31.40625 53.484375 "/>
<path style=" stroke:none;fill-rule:nonzero;fill:rgb(81.176471%,41.960784%,0%);fill-opacity:1;" d="M 33.109375 45.203125 L 30.113281 45.203125 C 29.820312 45.222656 29.539062 45.078125 29.386719 44.824219 C 29.238281 44.574219 29.238281 44.261719 29.386719 44.007812 C 29.539062 43.757812 29.820312 43.613281 30.113281 43.632812 L 34.8125 43.632812 C 35.152344 43.652344 35.472656 43.484375 35.648438 43.191406 C 35.824219 42.902344 35.824219 42.535156 35.648438 42.246094 C 35.472656 41.953125 35.152344 41.785156 34.8125 41.804688 L 32.523438 41.804688 L 32.523438 40.703125 C 32.523438 40.199219 32.117188 39.792969 31.613281 39.792969 C 31.109375 39.792969 30.699219 40.199219 30.699219 40.703125 L 30.699219 41.804688 L 30.113281 41.804688 C 29.15625 41.769531 28.257812 42.261719 27.773438 43.085938 C 27.285156 43.90625 27.285156 44.929688 27.773438 45.75 C 28.257812 46.574219 29.15625 47.0625 30.113281 47.03125 L 33.109375 47.03125 C 33.546875 47.03125 33.898438 47.382812 33.898438 47.816406 C 33.898438 48.253906 33.546875 48.605469 33.109375 48.605469 L 28.414062 48.605469 C 28.074219 48.585938 27.75 48.753906 27.574219 49.046875 C 27.398438 49.335938 27.398438 49.699219 27.574219 49.992188 C 27.75 50.28125 28.074219 50.453125 28.414062 50.433594 L 30.699219 50.433594 L 30.699219 51.996094 C 30.699219 52.5 31.109375 52.910156 31.613281 52.910156 C 32.117188 52.910156 32.523438 52.5 32.523438 51.996094 L 32.523438 50.433594 L 33.109375 50.433594 C 34.554688 50.433594 35.726562 49.261719 35.726562 47.816406 C 35.726562 46.375 34.554688 45.203125 33.109375 45.203125 Z M 33.109375 45.203125 "/>
<path style=" stroke:none;fill-rule:nonzero;fill:rgb(95.686275%,76.078431%,24.705882%);fill-opacity:1;" d="M 50.132812 30.789062 C 50.023438 30.75 49.914062 30.71875 49.800781 30.691406 C 49.582031 30.632812 49.355469 30.589844 49.128906 30.558594 L 49.011719 30.539062 C 48.570312 30.476562 48.21875 30.128906 48.160156 29.6875 C 48.152344 29.648438 48.152344 29.609375 48.144531 29.570312 C 48.109375 29.347656 48.066406 29.125 48.007812 28.898438 C 47.980469 28.789062 47.949219 28.675781 47.914062 28.5625 C 47.875 28.453125 47.835938 28.339844 47.785156 28.226562 C 47.738281 28.335938 47.695312 28.449219 47.660156 28.5625 C 47.625 28.675781 47.59375 28.789062 47.566406 28.898438 C 47.507812 29.121094 47.460938 29.34375 47.429688 29.570312 C 47.425781 29.605469 47.417969 29.644531 47.414062 29.683594 C 47.351562 30.125 47.003906 30.472656 46.558594 30.535156 L 46.445312 30.550781 C 46.222656 30.585938 45.996094 30.628906 45.773438 30.6875 C 45.660156 30.71875 45.546875 30.746094 45.4375 30.785156 C 45.320312 30.820312 45.210938 30.863281 45.101562 30.910156 C 45.210938 30.960938 45.320312 31.003906 45.4375 31.039062 C 45.546875 31.078125 45.660156 31.109375 45.773438 31.140625 C 45.996094 31.195312 46.222656 31.238281 46.445312 31.273438 L 46.558594 31.289062 C 47 31.351562 47.347656 31.699219 47.40625 32.144531 C 47.414062 32.179688 47.421875 32.21875 47.425781 32.257812 C 47.460938 32.480469 47.503906 32.699219 47.5625 32.925781 C 47.589844 33.039062 47.625 33.148438 47.65625 33.261719 C 47.695312 33.371094 47.734375 33.484375 47.785156 33.597656 C 47.835938 33.488281 47.878906 33.375 47.914062 33.261719 C 47.953125 33.148438 47.984375 33.035156 48.011719 32.925781 C 48.070312 32.703125 48.113281 32.480469 48.148438 32.257812 C 48.152344 32.21875 48.160156 32.179688 48.164062 32.140625 C 48.222656 31.695312 48.574219 31.347656 49.019531 31.285156 L 49.128906 31.269531 C 49.355469 31.234375 49.578125 31.1875 49.800781 31.136719 C 49.914062 31.105469 50.023438 31.074219 50.132812 31.035156 C 50.25 31.003906 50.359375 30.960938 50.46875 30.910156 C 50.359375 30.863281 50.25 30.820312 50.132812 30.789062 Z M 50.132812 30.789062 "/>
<path style=" stroke:none;fill-rule:nonzero;fill:rgb(95.686275%,76.078431%,24.705882%);fill-opacity:1;" d="M 18.785156 32.464844 C 18.671875 32.425781 18.558594 32.394531 18.449219 32.363281 C 18.222656 32.3125 18 32.265625 17.777344 32.230469 L 17.660156 32.214844 C 17.21875 32.152344 16.867188 31.804688 16.804688 31.363281 C 16.804688 31.324219 16.796875 31.28125 16.789062 31.246094 C 16.753906 31.019531 16.710938 30.800781 16.65625 30.574219 C 16.628906 30.464844 16.597656 30.351562 16.558594 30.238281 C 16.523438 30.128906 16.484375 30.015625 16.433594 29.902344 C 16.386719 30.015625 16.34375 30.125 16.308594 30.238281 C 16.269531 30.351562 16.238281 30.464844 16.210938 30.574219 C 16.152344 30.800781 16.113281 31.019531 16.078125 31.246094 C 16.070312 31.28125 16.0625 31.320312 16.0625 31.355469 C 16 31.800781 15.652344 32.152344 15.207031 32.210938 L 15.089844 32.226562 C 14.867188 32.261719 14.644531 32.304688 14.417969 32.363281 C 14.308594 32.390625 14.195312 32.421875 14.082031 32.460938 C 13.96875 32.496094 13.855469 32.539062 13.746094 32.589844 C 13.855469 32.636719 13.96875 32.679688 14.082031 32.71875 C 14.195312 32.753906 14.308594 32.785156 14.417969 32.8125 C 14.644531 32.871094 14.867188 32.914062 15.089844 32.949219 L 15.203125 32.964844 C 15.648438 33.027344 15.996094 33.375 16.058594 33.816406 C 16.0625 33.855469 16.066406 33.894531 16.074219 33.929688 C 16.105469 34.15625 16.152344 34.378906 16.207031 34.601562 C 16.234375 34.714844 16.269531 34.828125 16.304688 34.9375 C 16.34375 35.050781 16.378906 35.160156 16.433594 35.273438 C 16.484375 35.164062 16.527344 35.050781 16.558594 34.9375 C 16.597656 34.824219 16.628906 34.714844 16.660156 34.601562 C 16.714844 34.378906 16.761719 34.15625 16.792969 33.929688 C 16.800781 33.890625 16.804688 33.851562 16.808594 33.8125 C 16.871094 33.371094 17.21875 33.023438 17.664062 32.960938 L 17.777344 32.945312 C 18.003906 32.910156 18.226562 32.867188 18.449219 32.808594 C 18.558594 32.78125 18.671875 32.753906 18.785156 32.714844 C 18.898438 32.679688 19.007812 32.636719 19.117188 32.589844 C 19.007812 32.539062 18.898438 32.496094 18.785156 32.464844 Z M 18.785156 32.464844 "/>
</g>
</svg>
