<?xml version="1.0" encoding="UTF-8"?>
<svg xmlns="http://www.w3.org/2000/svg" xmlns:xlink="http://www.w3.org/1999/xlink" width="64px" height="64px" viewBox="0 0 64 64" version="1.1">
<g id="surface1">
<path style=" stroke:none;fill-rule:nonzero;fill:rgb(100%,47.45098%,0%);fill-opacity:1;" d="M 50.765625 21.660156 L 53.964844 17.738281 C 54.335938 17.320312 54.511719 16.761719 54.449219 16.203125 C 54.40625 15.640625 54.125 15.125 53.683594 14.769531 L 51.125 12.59375 C 50.691406 12.199219 50.113281 12 49.53125 12.035156 C 48.945312 12.074219 48.398438 12.351562 48.023438 12.800781 L 44.980469 16.589844 C 42.203125 14.820312 39.089844 13.644531 35.839844 13.136719 L 35.839844 10.238281 L 38.835938 10.238281 C 40.011719 10.238281 40.960938 9.289062 40.960938 8.113281 L 40.960938 4.683594 C 40.960938 3.511719 40.011719 2.558594 38.835938 2.558594 L 25.164062 2.558594 C 23.988281 2.558594 23.039062 3.511719 23.039062 4.683594 L 23.039062 8.113281 C 23.039062 9.289062 23.988281 10.238281 25.164062 10.238281 L 28.160156 10.238281 L 28.160156 13.136719 C 24.699219 13.679688 21.394531 14.976562 18.484375 16.921875 L 15.179688 12.800781 C 14.824219 12.359375 14.308594 12.085938 13.746094 12.03125 C 13.179688 11.976562 12.621094 12.148438 12.183594 12.519531 L 9.625 14.695312 C 9.183594 15.046875 8.90625 15.566406 8.859375 16.128906 C 8.800781 16.679688 8.964844 17.234375 9.320312 17.664062 L 12.800781 21.988281 L 12.800781 22.121094 C 4.941406 32.140625 6.15625 46.535156 15.585938 55.101562 C 25.015625 63.660156 39.460938 63.484375 48.679688 54.695312 C 57.898438 45.90625 58.765625 31.484375 50.660156 21.660156 Z M 49.738281 14.851562 L 51.710938 16.460938 L 49 19.765625 C 48.390625 19.164062 47.746094 18.605469 47.078125 18.074219 Z M 25.601562 5.121094 L 38.398438 5.121094 L 38.398438 7.679688 L 25.601562 7.679688 Z M 30.71875 10.238281 L 33.28125 10.238281 L 33.28125 12.800781 C 32.84375 12.800781 32.433594 12.800781 32 12.800781 C 31.566406 12.800781 31.15625 12.800781 30.71875 12.800781 Z M 11.496094 16.460938 L 13.488281 14.851562 L 16.433594 18.460938 C 15.78125 19.003906 15.160156 19.585938 14.566406 20.199219 Z M 32 58.878906 C 19.980469 58.878906 10.238281 49.140625 10.238281 37.121094 C 10.238281 25.101562 19.980469 15.359375 32 15.359375 C 44.019531 15.359375 53.761719 25.101562 53.761719 37.121094 C 53.746094 49.128906 44.011719 58.863281 32 58.878906 Z M 32 58.878906 "/>
<path style=" stroke:none;fill-rule:nonzero;fill:rgb(100%,47.45098%,0%);fill-opacity:1;" d="M 49.28125 35.839844 L 33.28125 35.839844 L 33.28125 19.839844 C 33.28125 19.136719 32.703125 18.558594 32 18.558594 C 21.75 18.558594 13.441406 26.871094 13.441406 37.121094 C 13.441406 47.371094 21.75 55.679688 32 55.679688 C 42.25 55.679688 50.558594 47.371094 50.558594 37.121094 C 50.558594 36.414062 49.984375 35.839844 49.28125 35.839844 Z M 32 53.121094 C 23.410156 53.121094 16.355469 46.339844 16.011719 37.761719 C 15.671875 29.179688 22.160156 21.859375 30.71875 21.171875 L 30.71875 37.121094 C 30.71875 37.824219 31.296875 38.398438 32 38.398438 L 47.949219 38.398438 C 47.269531 46.710938 40.335938 53.109375 32 53.121094 Z M 32 53.121094 "/>
</g>
</svg>
